<mxfile host="app.diagrams.net" modified="2022-01-21T00:12:22.741Z" agent="5.0 (Windows NT 10.0; Win64; x64) AppleWebKit/537.36 (KHTML, like Gecko) Chrome/97.0.4692.99 Safari/537.36" etag="8ELlMe16eHk6LvIMj5zi" version="15.5.5" type="github">
  <diagram id="36Sjt98WIAArodNZZSz4" name="Page-1">
    <mxGraphModel dx="595" dy="782" grid="1" gridSize="10" guides="1" tooltips="1" connect="1" arrows="1" fold="1" page="1" pageScale="1" pageWidth="827" pageHeight="1169" background="#ffffff" math="0" shadow="1">
      <root>
        <mxCell id="0" />
        <mxCell id="1" parent="0" />
        <mxCell id="4YP379g4CfKxmB0FKtDT-1" value="" style="edgeStyle=orthogonalEdgeStyle;rounded=0;orthogonalLoop=1;jettySize=auto;html=1;endArrow=none;endFill=0;" edge="1" parent="1" source="4YP379g4CfKxmB0FKtDT-4" target="4YP379g4CfKxmB0FKtDT-10">
          <mxGeometry relative="1" as="geometry" />
        </mxCell>
        <mxCell id="4YP379g4CfKxmB0FKtDT-2" value="" style="edgeStyle=none;rounded=0;orthogonalLoop=1;jettySize=auto;html=1;startArrow=none;startFill=0;endArrow=none;endFill=0;exitX=0;exitY=0.5;exitDx=0;exitDy=0;" edge="1" parent="1" source="4YP379g4CfKxmB0FKtDT-4" target="4YP379g4CfKxmB0FKtDT-15">
          <mxGeometry relative="1" as="geometry" />
        </mxCell>
        <mxCell id="4YP379g4CfKxmB0FKtDT-3" value="" style="edgeStyle=none;rounded=0;orthogonalLoop=1;jettySize=auto;html=1;startArrow=none;startFill=0;endArrow=none;endFill=0;" edge="1" parent="1" source="4YP379g4CfKxmB0FKtDT-4" target="4YP379g4CfKxmB0FKtDT-17">
          <mxGeometry relative="1" as="geometry" />
        </mxCell>
        <mxCell id="4YP379g4CfKxmB0FKtDT-4" value="Teilnehmer" style="rounded=1;arcSize=10;whiteSpace=wrap;html=1;align=center;" vertex="1" parent="1">
          <mxGeometry x="1071" y="590" width="100" height="40" as="geometry" />
        </mxCell>
        <mxCell id="4YP379g4CfKxmB0FKtDT-5" value="" style="edgeStyle=orthogonalEdgeStyle;rounded=0;orthogonalLoop=1;jettySize=auto;html=1;endArrow=none;endFill=0;" edge="1" parent="1" source="4YP379g4CfKxmB0FKtDT-8" target="4YP379g4CfKxmB0FKtDT-12">
          <mxGeometry relative="1" as="geometry" />
        </mxCell>
        <mxCell id="4YP379g4CfKxmB0FKtDT-6" value="" style="edgeStyle=none;rounded=0;orthogonalLoop=1;jettySize=auto;html=1;startArrow=none;startFill=0;endArrow=none;endFill=0;exitX=0;exitY=0.5;exitDx=0;exitDy=0;" edge="1" parent="1" source="4YP379g4CfKxmB0FKtDT-8" target="4YP379g4CfKxmB0FKtDT-19">
          <mxGeometry relative="1" as="geometry" />
        </mxCell>
        <mxCell id="4YP379g4CfKxmB0FKtDT-8" value="chat-raum" style="rounded=1;arcSize=10;whiteSpace=wrap;html=1;align=center;" vertex="1" parent="1">
          <mxGeometry x="1071" y="810" width="100" height="40" as="geometry" />
        </mxCell>
        <mxCell id="4YP379g4CfKxmB0FKtDT-9" value="" style="edgeStyle=orthogonalEdgeStyle;rounded=0;orthogonalLoop=1;jettySize=auto;html=1;endArrow=none;endFill=0;" edge="1" parent="1" source="4YP379g4CfKxmB0FKtDT-10" target="4YP379g4CfKxmB0FKtDT-8">
          <mxGeometry relative="1" as="geometry" />
        </mxCell>
        <mxCell id="4YP379g4CfKxmB0FKtDT-43" value="" style="rounded=0;orthogonalLoop=1;jettySize=auto;html=1;entryX=-0.008;entryY=0.7;entryDx=0;entryDy=0;entryPerimeter=0;exitX=1;exitY=0.5;exitDx=0;exitDy=0;" edge="1" parent="1" source="4YP379g4CfKxmB0FKtDT-10" target="4YP379g4CfKxmB0FKtDT-42">
          <mxGeometry relative="1" as="geometry" />
        </mxCell>
        <mxCell id="4YP379g4CfKxmB0FKtDT-45" value="" style="edgeStyle=none;rounded=0;orthogonalLoop=1;jettySize=auto;html=1;exitX=1;exitY=0.5;exitDx=0;exitDy=0;" edge="1" parent="1" source="4YP379g4CfKxmB0FKtDT-10" target="4YP379g4CfKxmB0FKtDT-44">
          <mxGeometry relative="1" as="geometry" />
        </mxCell>
        <mxCell id="4YP379g4CfKxmB0FKtDT-10" value="nimmt teil" style="shape=rhombus;perimeter=rhombusPerimeter;whiteSpace=wrap;html=1;align=center;" vertex="1" parent="1">
          <mxGeometry x="1061" y="700" width="120" height="60" as="geometry" />
        </mxCell>
        <mxCell id="4YP379g4CfKxmB0FKtDT-11" value="" style="edgeStyle=orthogonalEdgeStyle;rounded=0;orthogonalLoop=1;jettySize=auto;html=1;endArrow=none;endFill=0;" edge="1" parent="1" source="4YP379g4CfKxmB0FKtDT-12" target="4YP379g4CfKxmB0FKtDT-14">
          <mxGeometry relative="1" as="geometry" />
        </mxCell>
        <mxCell id="4YP379g4CfKxmB0FKtDT-12" value="hat" style="rhombus;whiteSpace=wrap;html=1;rounded=1;arcSize=10;" vertex="1" parent="1">
          <mxGeometry x="1251" y="790" width="80" height="80" as="geometry" />
        </mxCell>
        <mxCell id="4YP379g4CfKxmB0FKtDT-13" value="" style="edgeStyle=none;rounded=0;orthogonalLoop=1;jettySize=auto;html=1;startArrow=none;startFill=0;endArrow=none;endFill=0;exitX=0.5;exitY=1;exitDx=0;exitDy=0;" edge="1" parent="1" source="4YP379g4CfKxmB0FKtDT-14" target="4YP379g4CfKxmB0FKtDT-22">
          <mxGeometry relative="1" as="geometry" />
        </mxCell>
        <mxCell id="4YP379g4CfKxmB0FKtDT-14" value="nachrichten" style="whiteSpace=wrap;html=1;rounded=1;arcSize=10;" vertex="1" parent="1">
          <mxGeometry x="1401" y="800" width="120" height="60" as="geometry" />
        </mxCell>
        <mxCell id="4YP379g4CfKxmB0FKtDT-15" value="&lt;u&gt;t-id&lt;/u&gt;" style="ellipse;whiteSpace=wrap;html=1;rounded=1;arcSize=10;" vertex="1" parent="1">
          <mxGeometry x="871" y="470" width="80" height="60" as="geometry" />
        </mxCell>
        <mxCell id="4YP379g4CfKxmB0FKtDT-16" value="t-pass" style="ellipse;whiteSpace=wrap;html=1;rounded=1;arcSize=10;" vertex="1" parent="1">
          <mxGeometry x="871" y="530" width="80" height="60" as="geometry" />
        </mxCell>
        <mxCell id="4YP379g4CfKxmB0FKtDT-17" value="t-email" style="ellipse;whiteSpace=wrap;html=1;rounded=1;arcSize=10;" vertex="1" parent="1">
          <mxGeometry x="871" y="590" width="80" height="60" as="geometry" />
        </mxCell>
        <mxCell id="4YP379g4CfKxmB0FKtDT-18" value="" style="edgeStyle=none;rounded=0;orthogonalLoop=1;jettySize=auto;html=1;startArrow=none;startFill=0;endArrow=none;endFill=0;entryX=1;entryY=0.5;entryDx=0;entryDy=0;exitX=0;exitY=0.5;exitDx=0;exitDy=0;" edge="1" parent="1" source="4YP379g4CfKxmB0FKtDT-4" target="4YP379g4CfKxmB0FKtDT-16">
          <mxGeometry relative="1" as="geometry">
            <mxPoint x="1061" y="610" as="sourcePoint" />
            <mxPoint x="961" y="620" as="targetPoint" />
          </mxGeometry>
        </mxCell>
        <mxCell id="4YP379g4CfKxmB0FKtDT-19" value="&lt;u&gt;c-id&lt;/u&gt;" style="ellipse;whiteSpace=wrap;html=1;rounded=1;arcSize=10;" vertex="1" parent="1">
          <mxGeometry x="861" y="750" width="80" height="50" as="geometry" />
        </mxCell>
        <mxCell id="4YP379g4CfKxmB0FKtDT-20" value="b-name" style="ellipse;whiteSpace=wrap;html=1;rounded=1;arcSize=10;" vertex="1" parent="1">
          <mxGeometry x="856" y="860" width="80" height="50" as="geometry" />
        </mxCell>
        <mxCell id="4YP379g4CfKxmB0FKtDT-21" value="" style="edgeStyle=none;rounded=0;orthogonalLoop=1;jettySize=auto;html=1;startArrow=none;startFill=0;endArrow=none;endFill=0;entryX=1;entryY=0.5;entryDx=0;entryDy=0;" edge="1" parent="1" target="4YP379g4CfKxmB0FKtDT-20">
          <mxGeometry relative="1" as="geometry">
            <mxPoint x="1071" y="830" as="sourcePoint" />
            <mxPoint x="957.8918161007145" y="794.6621423120919" as="targetPoint" />
          </mxGeometry>
        </mxCell>
        <mxCell id="4YP379g4CfKxmB0FKtDT-22" value="n-datum" style="ellipse;whiteSpace=wrap;html=1;rounded=1;arcSize=10;" vertex="1" parent="1">
          <mxGeometry x="1536" y="940" width="90" height="40" as="geometry" />
        </mxCell>
        <mxCell id="4YP379g4CfKxmB0FKtDT-23" value="&lt;u&gt;n-id&lt;/u&gt;" style="ellipse;whiteSpace=wrap;html=1;rounded=1;arcSize=10;" vertex="1" parent="1">
          <mxGeometry x="1431" y="940" width="90" height="40" as="geometry" />
        </mxCell>
        <mxCell id="4YP379g4CfKxmB0FKtDT-25" value="" style="edgeStyle=none;rounded=0;orthogonalLoop=1;jettySize=auto;html=1;startArrow=none;startFill=0;endArrow=none;endFill=0;entryX=0.5;entryY=0;entryDx=0;entryDy=0;" edge="1" parent="1" target="4YP379g4CfKxmB0FKtDT-23">
          <mxGeometry relative="1" as="geometry">
            <mxPoint x="1461" y="860" as="sourcePoint" />
            <mxPoint x="1471" y="950" as="targetPoint" />
          </mxGeometry>
        </mxCell>
        <mxCell id="4YP379g4CfKxmB0FKtDT-27" value="m" style="text;html=1;align=center;verticalAlign=middle;resizable=0;points=[];autosize=1;strokeColor=none;" vertex="1" parent="1">
          <mxGeometry x="1091" y="630" width="30" height="20" as="geometry" />
        </mxCell>
        <mxCell id="4YP379g4CfKxmB0FKtDT-28" value="n" style="text;html=1;align=center;verticalAlign=middle;resizable=0;points=[];autosize=1;strokeColor=none;" vertex="1" parent="1">
          <mxGeometry x="1121" y="790" width="20" height="20" as="geometry" />
        </mxCell>
        <mxCell id="4YP379g4CfKxmB0FKtDT-29" value="1" style="text;html=1;align=center;verticalAlign=middle;resizable=0;points=[];autosize=1;strokeColor=none;" vertex="1" parent="1">
          <mxGeometry x="1171" y="805" width="20" height="20" as="geometry" />
        </mxCell>
        <mxCell id="4YP379g4CfKxmB0FKtDT-30" value="n" style="text;html=1;align=center;verticalAlign=middle;resizable=0;points=[];autosize=1;strokeColor=none;" vertex="1" parent="1">
          <mxGeometry x="1381" y="830" width="20" height="20" as="geometry" />
        </mxCell>
        <mxCell id="4YP379g4CfKxmB0FKtDT-31" value="" style="edgeStyle=none;rounded=0;orthogonalLoop=1;jettySize=auto;html=1;startArrow=none;startFill=0;endArrow=none;endFill=0;entryX=0.5;entryY=0;entryDx=0;entryDy=0;" edge="1" parent="1" target="4YP379g4CfKxmB0FKtDT-32">
          <mxGeometry relative="1" as="geometry">
            <mxPoint x="1461" y="860" as="sourcePoint" />
            <mxPoint x="1281" y="940" as="targetPoint" />
          </mxGeometry>
        </mxCell>
        <mxCell id="4YP379g4CfKxmB0FKtDT-32" value="n-zeit" style="ellipse;whiteSpace=wrap;html=1;rounded=1;arcSize=10;" vertex="1" parent="1">
          <mxGeometry x="1341" y="940" width="90" height="40" as="geometry" />
        </mxCell>
        <mxCell id="4YP379g4CfKxmB0FKtDT-33" value="" style="edgeStyle=none;rounded=0;orthogonalLoop=1;jettySize=auto;html=1;startArrow=none;startFill=0;endArrow=none;endFill=0;exitX=0;exitY=0.5;exitDx=0;exitDy=0;" edge="1" parent="1" source="4YP379g4CfKxmB0FKtDT-4" target="4YP379g4CfKxmB0FKtDT-34">
          <mxGeometry relative="1" as="geometry">
            <mxPoint x="1071" y="540" as="sourcePoint" />
          </mxGeometry>
        </mxCell>
        <mxCell id="4YP379g4CfKxmB0FKtDT-34" value="voname" style="ellipse;whiteSpace=wrap;html=1;rounded=1;arcSize=10;" vertex="1" parent="1">
          <mxGeometry x="871" y="400" width="80" height="60" as="geometry" />
        </mxCell>
        <mxCell id="4YP379g4CfKxmB0FKtDT-35" value="" style="edgeStyle=none;rounded=0;orthogonalLoop=1;jettySize=auto;html=1;startArrow=none;startFill=0;endArrow=none;endFill=0;exitX=0;exitY=0.75;exitDx=0;exitDy=0;" edge="1" parent="1" source="4YP379g4CfKxmB0FKtDT-4" target="4YP379g4CfKxmB0FKtDT-36">
          <mxGeometry relative="1" as="geometry">
            <mxPoint x="1071" y="790" as="sourcePoint" />
          </mxGeometry>
        </mxCell>
        <mxCell id="4YP379g4CfKxmB0FKtDT-36" value="nachname" style="ellipse;whiteSpace=wrap;html=1;rounded=1;arcSize=10;" vertex="1" parent="1">
          <mxGeometry x="871" y="650" width="80" height="60" as="geometry" />
        </mxCell>
        <mxCell id="4YP379g4CfKxmB0FKtDT-40" value="" style="edgeStyle=none;rounded=0;orthogonalLoop=1;jettySize=auto;html=1;startArrow=none;startFill=0;endArrow=none;endFill=0;entryX=0.5;entryY=0;entryDx=0;entryDy=0;" edge="1" parent="1" target="4YP379g4CfKxmB0FKtDT-41">
          <mxGeometry relative="1" as="geometry">
            <mxPoint x="1461" y="860" as="sourcePoint" />
            <mxPoint x="1190" y="940" as="targetPoint" />
          </mxGeometry>
        </mxCell>
        <mxCell id="4YP379g4CfKxmB0FKtDT-41" value="n-datei" style="ellipse;whiteSpace=wrap;html=1;rounded=1;arcSize=10;" vertex="1" parent="1">
          <mxGeometry x="1240" y="940" width="90" height="40" as="geometry" />
        </mxCell>
        <mxCell id="4YP379g4CfKxmB0FKtDT-42" value="&lt;u&gt;t-id&lt;/u&gt;" style="ellipse;whiteSpace=wrap;html=1;" vertex="1" parent="1">
          <mxGeometry x="1290" y="660" width="120" height="60" as="geometry" />
        </mxCell>
        <mxCell id="4YP379g4CfKxmB0FKtDT-44" value="&lt;u&gt;c-id&lt;/u&gt;" style="ellipse;whiteSpace=wrap;html=1;" vertex="1" parent="1">
          <mxGeometry x="1290" y="730" width="120" height="60" as="geometry" />
        </mxCell>
      </root>
    </mxGraphModel>
  </diagram>
</mxfile>
